<svg width="32" height="32" viewBox="0 0 32 32" fill="none" xmlns="http://www.w3.org/2000/svg">
<path fill-rule="evenodd" clip-rule="evenodd" d="M20.2276 3.56937C20.4722 3.46694 20.7348 3.41418 21 3.41418C21.2652 3.41418 21.5278 3.46694 21.7724 3.56937C22.0156 3.6712 22.2363 3.82012 22.4217 4.00754L27.9925 9.57825C28.1799 9.76369 28.3288 9.98435 28.4306 10.2276C28.5331 10.4722 28.5858 10.7348 28.5858 11C28.5858 11.2652 28.5331 11.5278 28.4306 11.7724C28.3288 12.0157 28.1799 12.2363 27.9925 12.4217L12.7071 27.7071C12.5196 27.8947 12.2652 28 12 28H6C5.46957 28 4.96086 27.7893 4.58579 27.4142C4.21071 27.0392 4 26.5304 4 26V20.414M20.2276 3.56937C19.9843 3.67122 19.7636 3.82017 19.5782 4.00763L20.2276 3.56937ZM6 20.4142V26H11.5858L26.5858 11L26.5804 10.9946L21 5.41421L20.9946 5.41964L6 20.4142Z" fill="black"/>
<path fill-rule="evenodd" clip-rule="evenodd" d="M11 27C11 26.4477 11.4477 26 12 26H27C27.5523 26 28 26.4477 28 27C28 27.5523 27.5523 28 27 28H12C11.4477 28 11 27.5523 11 27Z" fill="black"/>
<path fill-rule="evenodd" clip-rule="evenodd" d="M16.2929 7.29289C16.6834 6.90237 17.3166 6.90237 17.7071 7.29289L24.7071 14.2929C25.0976 14.6834 25.0976 15.3166 24.7071 15.7071C24.3166 16.0976 23.6834 16.0976 23.2929 15.7071L16.2929 8.70711C15.9024 8.31658 15.9024 7.68342 16.2929 7.29289Z" fill="black"/>
</svg>
